# Blender v2.91.2 OBJ File: '123.blend'
# www.blender.org
mtllib 123.mtl
o 立方体
v 0.438447 -4.585653 5.977544
v 0.438447 4.585653 5.977544
v 0.438447 -4.585653 -5.977544
v 0.438447 4.585653 -5.977544
v -0.438447 -1.553356 2.024849
v -0.438447 1.553356 2.024849
v -0.438447 -1.553356 -2.024849
v -0.438447 1.553356 -2.024849
v 0.438447 -5.367582 -6.475400
v 0.438447 -5.367582 6.475400
v 0.438447 4.967582 6.475400
v 0.438447 4.967582 -6.475400
v 0.338447 -4.585653 -5.977544
v 0.338447 -4.585653 5.977544
v 0.338447 4.585653 5.977544
v 0.338447 4.585653 -5.977544
v -0.438447 4.967582 -6.475400
v -0.438447 -5.367582 -6.475400
v -0.438447 -5.367582 6.475400
v -0.438447 4.967582 6.475400
v -1.438447 0.778154 -1.014349
v -1.438447 -0.778154 -1.014349
v -1.438447 -0.778154 1.014349
v -1.438447 0.778154 1.014349
v 0.357901 -4.963031 -0.205115
v 0.519050 -4.963031 -0.205115
v 0.357901 -5.004186 -0.201062
v 0.519050 -5.004186 -0.201062
v 0.357901 -5.043760 -0.189057
v 0.519050 -5.043760 -0.189057
v 0.357901 -5.080231 -0.169563
v 0.519050 -5.080231 -0.169563
v 0.357901 -5.112198 -0.143328
v 0.519050 -5.112198 -0.143328
v 0.357901 -5.138433 -0.111361
v 0.519050 -5.138433 -0.111361
v 0.357901 -5.157928 -0.074890
v 0.519050 -5.157928 -0.074890
v 0.357901 -5.169931 -0.035317
v 0.519050 -5.169931 -0.035317
v 0.357901 -5.173985 0.005838
v 0.519050 -5.173985 0.005838
v 0.357901 -5.169931 0.046993
v 0.519050 -5.169931 0.046993
v 0.357901 -5.157928 0.086567
v 0.519050 -5.157928 0.086567
v 0.357901 -5.138433 0.123038
v 0.519050 -5.138433 0.123038
v 0.357901 -5.112198 0.155005
v 0.519050 -5.112198 0.155005
v 0.357901 -5.080231 0.181240
v 0.519050 -5.080231 0.181240
v 0.357901 -5.043760 0.200734
v 0.519050 -5.043760 0.200734
v 0.357901 -5.004186 0.212739
v 0.519050 -5.004186 0.212739
v 0.357901 -4.963031 0.216792
v 0.519050 -4.963031 0.216792
v 0.357901 -4.921876 0.212739
v 0.519050 -4.921876 0.212738
v 0.357901 -4.882303 0.200734
v 0.519050 -4.882303 0.200734
v 0.357901 -4.845832 0.181240
v 0.519050 -4.845832 0.181240
v 0.357901 -4.813865 0.155005
v 0.519050 -4.813865 0.155005
v 0.357901 -4.787630 0.123038
v 0.519050 -4.787630 0.123038
v 0.357901 -4.768136 0.086567
v 0.519050 -4.768136 0.086567
v 0.357901 -4.756131 0.046993
v 0.519050 -4.756131 0.046993
v 0.357901 -4.752078 0.005838
v 0.519050 -4.752078 0.005838
v 0.357901 -4.756131 -0.035317
v 0.519050 -4.756131 -0.035317
v 0.357901 -4.768136 -0.074890
v 0.519050 -4.768136 -0.074890
v 0.357901 -4.787630 -0.111361
v 0.519050 -4.787630 -0.111361
v 0.357901 -4.813865 -0.143328
v 0.519050 -4.813865 -0.143328
v 0.357901 -4.845832 -0.169563
v 0.519050 -4.845832 -0.169563
v 0.357901 -4.882303 -0.189057
v 0.519050 -4.882303 -0.189057
v 0.357901 -4.921876 -0.201062
v 0.519050 -4.921876 -0.201062
v 0.005468 -7.169495 -0.414402
v 0.005468 -5.065693 -0.414402
v 0.087483 -7.169495 -0.406324
v 0.087483 -5.065693 -0.406324
v 0.166347 -7.169495 -0.382401
v 0.166347 -5.065693 -0.382401
v 0.239028 -7.169495 -0.343552
v 0.239028 -5.065693 -0.343552
v 0.302734 -7.169495 -0.291270
v 0.302734 -5.065693 -0.291270
v 0.355016 -7.169495 -0.227565
v 0.355016 -5.065693 -0.227565
v 0.393865 -7.169495 -0.154883
v 0.393865 -5.065693 -0.154883
v 0.417788 -7.169495 -0.076020
v 0.417788 -5.065693 -0.076020
v 0.425866 -7.169495 0.005996
v 0.425866 -5.065693 0.005996
v 0.417788 -7.169495 0.088011
v 0.417788 -5.065693 0.088011
v 0.393865 -7.169495 0.166875
v 0.393865 -5.065693 0.166875
v 0.355016 -7.169495 0.239556
v 0.355016 -5.065693 0.239556
v 0.302734 -7.169495 0.303262
v 0.302734 -5.065693 0.303262
v 0.239028 -7.169495 0.355544
v 0.239028 -5.065693 0.355544
v 0.166347 -7.169495 0.394393
v 0.166347 -5.065693 0.394393
v 0.087483 -7.169495 0.418316
v 0.087483 -5.065693 0.418316
v 0.005468 -7.169495 0.426393
v 0.005468 -5.065693 0.426393
v -0.076548 -7.169495 0.418316
v -0.076548 -5.065693 0.418316
v -0.155411 -7.169495 0.394393
v -0.155411 -5.065693 0.394393
v -0.228093 -7.169495 0.355544
v -0.228093 -5.065693 0.355544
v -0.291798 -7.169495 0.303262
v -0.291798 -5.065693 0.303262
v -0.344080 -7.169495 0.239556
v -0.344080 -5.065693 0.239556
v -0.382929 -7.169495 0.166875
v -0.382929 -5.065693 0.166875
v -0.406852 -7.169495 0.088011
v -0.406852 -5.065693 0.088011
v -0.414930 -7.169495 0.005995
v -0.414930 -5.065693 0.005995
v -0.406852 -7.169495 -0.076020
v -0.406852 -5.065693 -0.076020
v -0.382929 -7.169495 -0.154884
v -0.382929 -5.065693 -0.154884
v -0.344080 -7.169495 -0.227565
v -0.344080 -5.065693 -0.227565
v -0.291798 -7.169495 -0.291271
v -0.291798 -5.065693 -0.291271
v -0.228092 -7.169495 -0.343552
v -0.228092 -5.065693 -0.343552
v -0.155411 -7.169495 -0.382401
v -0.155411 -5.065693 -0.382401
v -0.076547 -7.169495 -0.406324
v -0.076547 -5.065693 -0.406324
v -0.093682 -7.389642 0.040280
v -0.093682 -6.765357 0.040280
v 0.125800 -7.389642 -0.401157
v 0.125800 -6.765357 -0.401157
v -0.313164 -7.389642 -0.401157
v -0.313164 -6.765357 -0.401157
v -0.093682 -7.389642 -0.842593
v -0.093682 -6.765357 -0.842593
v -0.093682 -7.389642 0.040280
v -0.093682 -6.765357 0.040280
v -0.313164 -6.765357 -0.401157
v -0.313164 -7.389642 -0.401157
v 2.707512 -6.765357 -3.181982
v 2.707512 -7.389642 -3.181982
v 2.488030 -7.389642 -3.623419
v 2.488030 -6.765357 -3.623419
v -1.526366 -6.765357 -1.554924
v -1.526366 -7.389642 -1.554924
v -1.745849 -7.389642 -1.113487
v -1.745849 -6.765357 -1.113487
v -0.093682 -6.765357 0.071857
v -0.093682 -7.389642 0.071857
v 0.125800 -6.765357 0.513293
v 0.125800 -7.389642 0.513293
v -0.313164 -6.765357 0.513293
v -0.313164 -7.389642 0.513293
v -0.093682 -6.765357 0.954730
v -0.093682 -7.389642 0.954730
v -0.093682 -6.765357 0.071857
v -0.093682 -7.389642 0.071857
v -0.313164 -7.389642 0.513293
v -0.313164 -6.765357 0.513293
v 2.707511 -7.389642 3.294119
v 2.707511 -6.765357 3.294119
v 2.488030 -6.765357 3.735556
v 2.488030 -7.389642 3.735556
v -1.526366 -7.389642 1.667060
v -1.526366 -6.765357 1.667060
v -1.745849 -6.765357 1.225623
v -1.745849 -7.389642 1.225623
vt 0.615389 0.240389
vt 0.615389 0.240389
vt 0.384611 0.240389
vt 0.384611 0.240389
vt 0.375000 0.250000
vt 0.375000 0.500000
vt 0.625000 0.500000
vt 0.625000 0.250000
vt 0.539087 0.585913
vt 0.539087 0.585913
vt 0.539087 0.664087
vt 0.539087 0.664087
vt 0.375000 0.750000
vt 0.375000 1.000000
vt 0.625000 1.000000
vt 0.625000 0.750000
vt 0.125000 0.500000
vt 0.125000 0.750000
vt 0.875000 0.750000
vt 0.875000 0.500000
vt 0.384611 0.009611
vt 0.375000 0.000000
vt 0.615389 0.009611
vt 0.625000 0.000000
vt 0.384611 0.009611
vt 0.615389 0.009611
vt 0.460913 0.585913
vt 0.460913 0.664087
vt 0.460913 0.585913
vt 0.460913 0.664087
vt 1.000000 0.500000
vt 0.968750 0.500000
vt 0.968750 1.000000
vt 1.000000 1.000000
vt 0.937500 0.500000
vt 0.937500 1.000000
vt 0.906250 0.500000
vt 0.906250 1.000000
vt 0.875000 0.500000
vt 0.875000 1.000000
vt 0.843750 0.500000
vt 0.843750 1.000000
vt 0.812500 0.500000
vt 0.812500 1.000000
vt 0.781250 0.500000
vt 0.781250 1.000000
vt 0.750000 0.500000
vt 0.750000 1.000000
vt 0.718750 0.500000
vt 0.718750 1.000000
vt 0.687500 0.500000
vt 0.687500 1.000000
vt 0.656250 0.500000
vt 0.656250 1.000000
vt 0.625000 0.500000
vt 0.625000 1.000000
vt 0.593750 0.500000
vt 0.593750 1.000000
vt 0.562500 0.500000
vt 0.562500 1.000000
vt 0.531250 0.500000
vt 0.531250 1.000000
vt 0.500000 0.500000
vt 0.500000 1.000000
vt 0.468750 0.500000
vt 0.468750 1.000000
vt 0.437500 0.500000
vt 0.437500 1.000000
vt 0.406250 0.500000
vt 0.406250 1.000000
vt 0.375000 0.500000
vt 0.375000 1.000000
vt 0.343750 0.500000
vt 0.343750 1.000000
vt 0.312500 0.500000
vt 0.312500 1.000000
vt 0.281250 0.500000
vt 0.281250 1.000000
vt 0.250000 0.500000
vt 0.250000 1.000000
vt 0.218750 0.500000
vt 0.218750 1.000000
vt 0.187500 0.500000
vt 0.187500 1.000000
vt 0.156250 0.500000
vt 0.156250 1.000000
vt 0.125000 0.500000
vt 0.125000 1.000000
vt 0.093750 0.500000
vt 0.093750 1.000000
vt 0.062500 0.500000
vt 0.062500 1.000000
vt 0.796822 0.485388
vt 0.841844 0.471731
vt 0.883337 0.449553
vt 0.919706 0.419706
vt 0.949553 0.383337
vt 0.971731 0.341844
vt 0.985388 0.296822
vt 0.990000 0.250000
vt 0.985389 0.203178
vt 0.971731 0.158156
vt 0.949553 0.116663
vt 0.919706 0.080294
vt 0.883337 0.050447
vt 0.841844 0.028269
vt 0.796822 0.014612
vt 0.750000 0.010000
vt 0.703178 0.014612
vt 0.658156 0.028269
vt 0.616663 0.050447
vt 0.580294 0.080294
vt 0.550447 0.116663
vt 0.528269 0.158156
vt 0.514611 0.203179
vt 0.510000 0.250000
vt 0.514612 0.296822
vt 0.528269 0.341844
vt 0.550447 0.383337
vt 0.580295 0.419706
vt 0.616663 0.449553
vt 0.658156 0.471731
vt 0.703179 0.485389
vt 0.750000 0.490000
vt 0.031250 0.500000
vt 0.031250 1.000000
vt 0.000000 0.500000
vt 0.000000 1.000000
vt 0.250000 0.490000
vt 0.203179 0.485389
vt 0.158156 0.471731
vt 0.116663 0.449553
vt 0.080295 0.419706
vt 0.050447 0.383337
vt 0.028269 0.341844
vt 0.014612 0.296822
vt 0.010000 0.250000
vt 0.014611 0.203179
vt 0.028269 0.158156
vt 0.050447 0.116663
vt 0.080294 0.080294
vt 0.116663 0.050447
vt 0.158156 0.028269
vt 0.203178 0.014612
vt 0.250000 0.010000
vt 0.296822 0.014612
vt 0.341844 0.028269
vt 0.383337 0.050447
vt 0.419706 0.080294
vt 0.449553 0.116663
vt 0.471731 0.158156
vt 0.485388 0.203178
vt 0.490000 0.250000
vt 0.485388 0.296822
vt 0.471731 0.341844
vt 0.449553 0.383337
vt 0.419706 0.419706
vt 0.383337 0.449553
vt 0.341844 0.471731
vt 0.296822 0.485388
vt 1.000000 0.500000
vt 0.968750 0.500000
vt 0.968750 1.000000
vt 1.000000 1.000000
vt 0.937500 0.500000
vt 0.937500 1.000000
vt 0.906250 0.500000
vt 0.906250 1.000000
vt 0.875000 0.500000
vt 0.875000 1.000000
vt 0.843750 0.500000
vt 0.843750 1.000000
vt 0.812500 0.500000
vt 0.812500 1.000000
vt 0.781250 0.500000
vt 0.781250 1.000000
vt 0.750000 0.500000
vt 0.750000 1.000000
vt 0.718750 0.500000
vt 0.718750 1.000000
vt 0.687500 0.500000
vt 0.687500 1.000000
vt 0.656250 0.500000
vt 0.656250 1.000000
vt 0.625000 0.500000
vt 0.625000 1.000000
vt 0.593750 0.500000
vt 0.593750 1.000000
vt 0.562500 0.500000
vt 0.562500 1.000000
vt 0.531250 0.500000
vt 0.531250 1.000000
vt 0.500000 0.500000
vt 0.500000 1.000000
vt 0.468750 0.500000
vt 0.468750 1.000000
vt 0.437500 0.500000
vt 0.437500 1.000000
vt 0.406250 0.500000
vt 0.406250 1.000000
vt 0.375000 0.500000
vt 0.375000 1.000000
vt 0.343750 0.500000
vt 0.343750 1.000000
vt 0.312500 0.500000
vt 0.312500 1.000000
vt 0.281250 0.500000
vt 0.281250 1.000000
vt 0.250000 0.500000
vt 0.250000 1.000000
vt 0.218750 0.500000
vt 0.218750 1.000000
vt 0.187500 0.500000
vt 0.187500 1.000000
vt 0.156250 0.500000
vt 0.156250 1.000000
vt 0.125000 0.500000
vt 0.125000 1.000000
vt 0.093750 0.500000
vt 0.093750 1.000000
vt 0.062500 0.500000
vt 0.062500 1.000000
vt 0.796822 0.485388
vt 0.841844 0.471731
vt 0.883337 0.449553
vt 0.919706 0.419706
vt 0.949553 0.383337
vt 0.971731 0.341844
vt 0.985388 0.296822
vt 0.990000 0.250000
vt 0.985388 0.203178
vt 0.971731 0.158156
vt 0.949553 0.116663
vt 0.919706 0.080294
vt 0.883337 0.050447
vt 0.841844 0.028269
vt 0.796822 0.014612
vt 0.750000 0.010000
vt 0.703178 0.014612
vt 0.658156 0.028269
vt 0.616663 0.050447
vt 0.580294 0.080294
vt 0.550447 0.116663
vt 0.528269 0.158156
vt 0.514611 0.203179
vt 0.510000 0.250000
vt 0.514612 0.296822
vt 0.528269 0.341844
vt 0.550447 0.383337
vt 0.580295 0.419706
vt 0.616663 0.449553
vt 0.658156 0.471731
vt 0.703179 0.485389
vt 0.750000 0.490000
vt 0.031250 0.500000
vt 0.031250 1.000000
vt 0.000000 0.500000
vt 0.000000 1.000000
vt 0.250000 0.490000
vt 0.203179 0.485389
vt 0.158156 0.471731
vt 0.116663 0.449553
vt 0.080295 0.419706
vt 0.050447 0.383337
vt 0.028269 0.341844
vt 0.014612 0.296822
vt 0.010000 0.250000
vt 0.014611 0.203179
vt 0.028269 0.158156
vt 0.050447 0.116663
vt 0.080294 0.080294
vt 0.116663 0.050447
vt 0.158156 0.028269
vt 0.203178 0.014612
vt 0.250000 0.010000
vt 0.296822 0.014612
vt 0.341844 0.028269
vt 0.383337 0.050447
vt 0.419706 0.080294
vt 0.449553 0.116663
vt 0.471731 0.158156
vt 0.485388 0.203178
vt 0.490000 0.250000
vt 0.485388 0.296822
vt 0.471731 0.341844
vt 0.449553 0.383337
vt 0.419706 0.419706
vt 0.383337 0.449553
vt 0.341844 0.471731
vt 0.296822 0.485388
vt 0.375000 0.000000
vt 0.375000 0.250000
vt 0.625000 0.250000
vt 0.625000 0.000000
vt 0.625000 0.500000
vt 0.625000 0.500000
vt 0.375000 0.500000
vt 0.375000 0.500000
vt 0.625000 0.500000
vt 0.625000 0.750000
vt 0.625000 0.750000
vt 0.625000 0.750000
vt 0.875000 0.750000
vt 0.875000 0.750000
vt 0.125000 0.500000
vt 0.125000 0.750000
vt 0.375000 0.750000
vt 0.875000 0.500000
vt 0.375000 0.750000
vt 0.375000 1.000000
vt 0.625000 1.000000
vt 0.625000 0.000000
vt 0.375000 0.000000
vt 0.125000 0.750000
vt 0.375000 0.250000
vt 0.625000 0.250000
vt 0.125000 0.500000
vt 0.875000 0.500000
vt 0.375000 0.500000
vt 0.375000 0.750000
vt 0.375000 0.000000
vt 0.375000 0.250000
vt 0.625000 0.250000
vt 0.625000 0.000000
vt 0.625000 0.500000
vt 0.625000 0.500000
vt 0.375000 0.500000
vt 0.375000 0.500000
vt 0.125000 0.500000
vt 0.125000 0.750000
vt 0.375000 0.750000
vt 0.625000 0.750000
vt 0.875000 0.750000
vt 0.875000 0.500000
vt 0.375000 0.750000
vt 0.375000 1.000000
vt 0.625000 1.000000
vt 0.625000 0.750000
vt 0.375000 0.250000
vt 0.625000 0.250000
vt 0.125000 0.500000
vt 0.375000 0.500000
vt 0.375000 0.750000
vt 0.625000 0.750000
vt 0.625000 0.500000
vt 0.000000 0.000000
vt 0.000000 0.000000
vt 0.000000 0.000000
vt 0.000000 0.000000
vt 0.000000 0.000000
vt 0.000000 0.000000
vt 0.000000 0.000000
vn 0.0000 0.0000 1.0000
vn 0.0000 0.0000 -1.0000
vn -0.6127 0.7903 0.0000
vn 0.0000 -1.0000 0.0000
vn 0.0000 1.0000 0.0000
vn 1.0000 0.0000 0.0000
vn -1.0000 0.0000 0.0000
vn -0.7108 0.0000 -0.7034
vn -0.7108 0.0000 0.7034
vn -0.6127 -0.7903 0.0000
vn 0.0000 0.1951 0.9808
vn 0.0000 0.3827 0.9239
vn 0.0000 0.5556 0.8315
vn 0.0000 0.7071 0.7071
vn 0.0000 0.8315 0.5556
vn 0.0000 0.9239 0.3827
vn 0.0000 0.9808 0.1951
vn -0.0000 0.9808 -0.1951
vn -0.0000 0.9239 -0.3827
vn 0.0000 0.8315 -0.5556
vn 0.0000 0.7071 -0.7071
vn 0.0000 0.5556 -0.8315
vn -0.0000 0.3827 -0.9239
vn -0.0000 0.1951 -0.9808
vn -0.0000 -0.1951 -0.9808
vn -0.0000 -0.3827 -0.9239
vn -0.0000 -0.5556 -0.8315
vn -0.0000 -0.7071 -0.7071
vn -0.0000 -0.8315 -0.5556
vn -0.0000 -0.9239 -0.3827
vn -0.0000 -0.9808 -0.1951
vn 0.0000 -0.9808 0.1951
vn 0.0000 -0.9239 0.3827
vn 0.0000 -0.8315 0.5556
vn 0.0000 -0.7071 0.7071
vn 0.0000 -0.5556 0.8315
vn 0.0000 -0.3827 0.9239
vn 0.0000 -0.1951 0.9808
vn -0.1951 0.0000 0.9808
vn -0.3827 0.0000 0.9239
vn -0.5556 0.0000 0.8315
vn -0.7071 0.0000 0.7071
vn -0.8315 0.0000 0.5556
vn -0.9239 0.0000 0.3827
vn -0.9808 0.0000 0.1951
vn -0.9808 0.0000 -0.1951
vn -0.9239 0.0000 -0.3827
vn -0.8315 0.0000 -0.5556
vn -0.7071 0.0000 -0.7071
vn -0.5556 0.0000 -0.8315
vn -0.3827 0.0000 -0.9239
vn -0.1951 0.0000 -0.9808
vn 0.1951 0.0000 -0.9808
vn 0.3827 0.0000 -0.9239
vn 0.5556 0.0000 -0.8315
vn 0.7071 0.0000 -0.7071
vn 0.8315 0.0000 -0.5556
vn 0.9239 0.0000 -0.3827
vn 0.9808 0.0000 -0.1951
vn 0.9808 0.0000 0.1951
vn 0.9239 0.0000 0.3827
vn 0.8315 0.0000 0.5556
vn 0.7071 0.0000 0.7071
vn 0.5556 0.0000 0.8315
vn 0.3827 0.0000 0.9239
vn 0.1951 0.0000 0.9808
vn 0.8954 0.0000 0.4452
vn 0.8226 0.0000 0.5686
vn -0.7329 0.0000 -0.6804
vn -0.1520 0.0000 0.9884
vn -0.8954 0.0000 0.4452
vn 0.8954 0.0000 -0.4452
vn 0.7329 0.0000 0.6804
vn -0.8954 0.0000 -0.4452
vn 0.4452 0.0000 -0.8954
vn -0.4452 0.0000 0.8954
vn 0.8226 -0.0000 -0.5686
vn -0.7329 0.0000 0.6804
vn 0.7329 0.0000 -0.6804
vn 0.4452 -0.0000 0.8954
vn -0.4452 0.0000 -0.8954
usemtl None
s 1
f 4/1/1 16/2/1 13/3/1 3/4/1
f 9/5/2 18/6/2 17/7/2 12/8/2
f 8/9/3 21/10/3 24/11/3 6/12/3
f 19/13/1 10/14/1 11/15/1 20/16/1
f 9/17/4 10/18/4 19/13/4 18/6/4
f 17/7/5 20/16/5 11/19/5 12/20/5
f 1/21/6 10/22/6 9/5/6 3/4/6
f 2/23/6 11/24/6 10/22/6 1/21/6
f 4/1/6 12/8/6 11/24/6 2/23/6
f 3/4/6 9/5/6 12/8/6 4/1/6
f 14/25/6 13/3/6 16/2/6 15/26/6
f 1/21/2 14/25/2 15/26/2 2/23/2
f 2/23/4 15/26/4 16/2/4 4/1/4
f 3/4/5 13/3/5 14/25/5 1/21/5
f 18/6/7 7/27/7 8/9/7 17/7/7
f 19/13/7 5/28/7 7/27/7 18/6/7
f 17/7/7 8/9/7 6/12/7 20/16/7
f 20/16/7 6/12/7 5/28/7 19/13/7
f 22/29/7 23/30/7 24/11/7 21/10/7
f 7/27/8 22/29/8 21/10/8 8/9/8
f 6/12/9 24/11/9 23/30/9 5/28/9
f 5/28/10 23/30/10 22/29/10 7/27/10
f 25/31/1 27/32/11 28/33/11 26/34/1
f 27/32/11 29/35/12 30/36/12 28/33/11
f 29/35/12 31/37/13 32/38/13 30/36/12
f 31/37/13 33/39/14 34/40/14 32/38/13
f 33/39/14 35/41/15 36/42/15 34/40/14
f 35/41/15 37/43/16 38/44/16 36/42/15
f 37/43/16 39/45/17 40/46/17 38/44/16
f 39/45/17 41/47/5 42/48/5 40/46/17
f 41/47/5 43/49/18 44/50/18 42/48/5
f 43/49/18 45/51/19 46/52/19 44/50/18
f 45/51/19 47/53/20 48/54/20 46/52/19
f 47/53/20 49/55/21 50/56/21 48/54/20
f 49/55/21 51/57/22 52/58/22 50/56/21
f 51/57/22 53/59/23 54/60/23 52/58/22
f 53/59/23 55/61/24 56/62/24 54/60/23
f 55/61/24 57/63/2 58/64/2 56/62/24
f 57/63/2 59/65/25 60/66/25 58/64/2
f 59/65/25 61/67/26 62/68/26 60/66/25
f 61/67/26 63/69/27 64/70/27 62/68/26
f 63/69/27 65/71/28 66/72/28 64/70/27
f 65/71/28 67/73/29 68/74/29 66/72/28
f 67/73/29 69/75/30 70/76/30 68/74/29
f 69/75/30 71/77/31 72/78/31 70/76/30
f 71/77/31 73/79/4 74/80/4 72/78/31
f 73/79/4 75/81/32 76/82/32 74/80/4
f 75/81/32 77/83/33 78/84/33 76/82/32
f 77/83/33 79/85/34 80/86/34 78/84/33
f 79/85/34 81/87/35 82/88/35 80/86/34
f 81/87/35 83/89/36 84/90/36 82/88/35
f 83/89/36 85/91/37 86/92/37 84/90/36
f 28/93/7 30/94/7 32/95/7 34/96/7 36/97/7 38/98/7 40/99/7 42/100/7 44/101/7 46/102/7 48/103/7 50/104/7 52/105/7 54/106/7 56/107/7 58/108/7 60/109/7 62/110/7 64/111/7 66/112/7 68/113/7 70/114/7 72/115/7 74/116/7 76/117/7 78/118/7 80/119/7 82/120/7 84/121/7 86/122/7 88/123/7 26/124/7
f 85/91/37 87/125/38 88/126/38 86/92/37
f 87/125/38 25/127/1 26/128/1 88/126/38
f 25/129/6 87/130/6 85/131/6 83/132/6 81/133/6 79/134/6 77/135/6 75/136/6 73/137/6 71/138/6 69/139/6 67/140/6 65/141/6 63/142/6 61/143/6 59/144/6 57/145/6 55/146/6 53/147/6 51/148/6 49/149/6 47/150/6 45/151/6 43/152/6 41/153/6 39/154/6 37/155/6 35/156/6 33/157/6 31/158/6 29/159/6 27/160/6
f 89/161/1 91/162/39 92/163/39 90/164/1
f 91/162/39 93/165/40 94/166/40 92/163/39
f 93/165/40 95/167/41 96/168/41 94/166/40
f 95/167/41 97/169/42 98/170/42 96/168/41
f 97/169/42 99/171/43 100/172/43 98/170/42
f 99/171/43 101/173/44 102/174/44 100/172/43
f 101/173/44 103/175/45 104/176/45 102/174/44
f 103/175/45 105/177/7 106/178/7 104/176/45
f 105/177/7 107/179/46 108/180/46 106/178/7
f 107/179/46 109/181/47 110/182/47 108/180/46
f 109/181/47 111/183/48 112/184/48 110/182/47
f 111/183/48 113/185/49 114/186/49 112/184/48
f 113/185/49 115/187/50 116/188/50 114/186/49
f 115/187/50 117/189/51 118/190/51 116/188/50
f 117/189/51 119/191/52 120/192/52 118/190/51
f 119/191/52 121/193/2 122/194/2 120/192/52
f 121/193/2 123/195/53 124/196/53 122/194/2
f 123/195/53 125/197/54 126/198/54 124/196/53
f 125/197/54 127/199/55 128/200/55 126/198/54
f 127/199/55 129/201/56 130/202/56 128/200/55
f 129/201/56 131/203/57 132/204/57 130/202/56
f 131/203/57 133/205/58 134/206/58 132/204/57
f 133/205/58 135/207/59 136/208/59 134/206/58
f 135/207/59 137/209/6 138/210/6 136/208/59
f 137/209/6 139/211/60 140/212/60 138/210/6
f 139/211/60 141/213/61 142/214/61 140/212/60
f 141/213/61 143/215/62 144/216/62 142/214/61
f 143/215/62 145/217/63 146/218/63 144/216/62
f 145/217/63 147/219/64 148/220/64 146/218/63
f 147/219/64 149/221/65 150/222/65 148/220/64
f 92/223/4 94/224/4 96/225/4 98/226/4 100/227/4 102/228/4 104/229/4 106/230/4 108/231/4 110/232/4 112/233/4 114/234/4 116/235/4 118/236/4 120/237/4 122/238/4 124/239/4 126/240/4 128/241/4 130/242/4 132/243/4 134/244/4 136/245/4 138/246/4 140/247/4 142/248/4 144/249/4 146/250/4 148/251/4 150/252/4 152/253/4 90/254/4
f 149/221/65 151/255/66 152/256/66 150/222/65
f 151/255/66 89/257/1 90/258/1 152/256/66
f 89/259/5 151/260/5 149/261/5 147/262/5 145/263/5 143/264/5 141/265/5 139/266/5 137/267/5 135/268/5 133/269/5 131/270/5 129/271/5 127/272/5 125/273/5 123/274/5 121/275/5 119/276/5 117/277/5 115/278/5 113/279/5 111/280/5 109/281/5 107/282/5 105/283/5 103/284/5 101/285/5 99/286/5 97/287/5 95/288/5 93/289/5 91/290/5
f 153/291/67 155/292/68 156/293/68 154/294/67
f 160/295/69 168/296/69 167/297/69 159/298/69
f 160/295/5 169/299/5 172/300/5 158/301/5
f 158/301/70 163/302/1 162/303/1 154/304/1
f 155/305/4 153/306/4 157/307/4 159/298/4
f 160/295/5 158/301/5 154/304/5 156/308/5
f 164/309/71 161/310/71 162/311/71 163/302/71
f 157/307/70 164/309/1 163/302/1 158/301/70
f 154/294/1 162/312/1 161/313/1 153/291/1
f 153/306/1 161/314/1 164/309/1 157/307/70
f 166/315/72 167/297/72 168/296/72 165/316/72
f 159/298/4 167/297/4 166/317/4 155/305/4
f 156/308/5 165/318/5 168/296/5 160/295/5
f 155/292/68 166/315/73 165/316/73 156/293/68
f 170/319/74 171/320/74 172/300/74 169/299/74
f 159/298/75 170/319/75 169/299/75 160/295/75
f 158/301/70 172/300/76 171/320/76 157/307/70
f 157/307/4 171/320/4 170/319/4 159/298/4
f 173/321/72 175/322/77 176/323/77 174/324/72
f 180/325/78 188/326/78 187/327/78 179/328/78
f 175/329/5 173/330/5 177/331/5 179/328/5
f 180/325/4 178/332/4 174/333/4 176/334/4
f 184/335/74 181/336/74 182/337/74 183/338/74
f 186/339/67 187/327/67 188/326/67 185/340/67
f 179/328/5 187/327/5 186/341/5 175/329/5
f 175/322/77 186/339/79 185/340/79 176/323/77
f 190/342/71 191/343/71 192/344/71 189/345/71
f 179/328/80 190/342/80 189/345/80 180/325/80
f 178/332/81 192/344/81 191/343/81 177/331/81
f 177/331/5 191/343/5 190/342/5 179/328/5
f 188/346/4 180/347/4 176/348/4 185/349/4
f 189/350/4 192/351/4 178/352/4 180/347/4
